<svg width="132" height="44" viewBox="0 0 132 44" fill="none" xmlns="http://www.w3.org/2000/svg">
<g clip-path="url(#clip0_9_1055)">
<g clip-path="url(#clip1_9_1055)">
<g clip-path="url(#clip2_9_1055)">
<path d="M19.6899 27.4339L19.4699 27.3639L19.6829 27.2699C19.7179 27.2699 23.3099 25.6179 23.3099 21.4669C23.3099 17.8689 19.8999 14.0469 13.5839 14.0469H0.796875V42.1339H14.4029C19.4829 42.1339 24.7269 39.0859 24.7269 33.9829C24.7369 29.0789 19.7429 27.4479 19.6899 27.4339ZM8.38688 20.0279H12.8399C14.4819 20.0279 15.5849 21.0329 15.5849 22.5279C15.5849 24.0219 14.5169 25.0259 12.8399 25.0259H8.38688V20.0279ZM13.8579 36.1529H8.38688V30.4759H13.8579C15.6779 30.4759 16.9449 31.6449 16.9449 33.3139C16.9449 34.9839 15.6779 36.1529 13.8579 36.1529ZM115.638 42.1339H123.225V20.7559H131.199V14.0459H107.664V20.7559H115.638V42.1339ZM35.5859 14.0469H27.9999V42.1339H44.1619L47.6189 34.9939H35.5859V14.0469ZM97.0099 25.0299C94.5179 24.2599 92.5349 23.6539 92.5349 22.1249C92.5349 20.6999 93.9589 19.6249 95.8249 19.6249C98.3589 19.6249 100.167 21.4069 100.527 21.7949L104.97 17.2449C104.553 16.7519 101.374 13.2629 95.0019 13.2629C89.8319 13.2629 84.2579 16.5769 84.2579 21.9359C84.2579 27.6369 89.0529 29.2089 92.9079 30.4689C95.4009 31.2839 97.3759 31.9319 97.3759 33.4789C97.3759 35.0259 96.2619 36.4789 93.7699 36.4789C90.4269 36.4789 88.1349 34.0739 87.7179 33.6119L84.5819 36.8419L86.4969 40.7969C88.9505 42.2241 91.7436 42.9631 94.5819 42.9359C97.9669 42.9359 100.851 41.9979 102.93 40.2199C103.874 39.429 104.634 38.4413 105.157 37.3259C105.676 36.2162 105.945 35.0053 105.942 33.7799C105.956 27.7769 100.993 26.2509 97.0099 25.0299Z" fill="#FAFAFA" fill-opacity="0.8"/>
<path d="M67.4252 0.79895L63.3162 9.28295L76.4142 19.3589L67.4242 0.79995L67.4252 0.79895ZM65.6742 24.452L73.7442 23.724L72.4881 21.127L59.1381 10.8549L51.9571 25.687L60.7641 24.893L63.3242 19.6049L65.6742 24.452ZM68.3631 27.9279L71.6212 34.6549H60.2501L63.2822 28.386L54.4751 29.181L48.2021 42.1339H83.6632L76.4331 27.204L68.3631 27.9279Z" fill="#4173FF"/>
</g>
</g>
</g>
<defs>
<clipPath id="clip0_9_1055">
<rect width="132" height="43" fill="white" transform="translate(0 0.25)"/>
</clipPath>
<clipPath id="clip1_9_1055">
<rect width="132" height="43" fill="white" transform="translate(0 0.25)"/>
</clipPath>
<clipPath id="clip2_9_1055">
<rect width="132" height="43" fill="white" transform="translate(0 0.25)"/>
</clipPath>
</defs>
</svg>
