<svg width="13" height="14" viewBox="0 0 13 14" fill="none" xmlns="http://www.w3.org/2000/svg">
<path d="M6.03613 9.37891C6.21842 9.54297 6.42806 9.625 6.66504 9.625C6.90202 9.625 7.11165 9.54297 7.29395 9.37891L11.6689 5.00391C11.833 4.82161 11.915 4.61198 11.915 4.375C11.915 4.13802 11.833 3.92839 11.6689 3.74609C11.4867 3.58203 11.277 3.5 11.04 3.5C10.8031 3.5 10.5934 3.58203 10.4111 3.74609L6.66504 7.51953L2.91895 3.74609C2.73665 3.58203 2.52702 3.5 2.29004 3.5C2.05306 3.5 1.84342 3.58203 1.66113 3.74609C1.49707 3.92839 1.41504 4.13802 1.41504 4.375C1.41504 4.61198 1.49707 4.82161 1.66113 5.00391L6.03613 9.37891Z" fill="#9A9A9A"/>
</svg>
