<svg width="16" height="17" viewBox="0 0 16 17" fill="none" xmlns="http://www.w3.org/2000/svg">
<path d="M1.5 2.21973C1.08333 2.24056 0.729167 2.38639 0.4375 2.65723C0.166667 2.94889 0.0208333 3.30306 0 3.71973C0.0208333 4.21973 0.21875 4.61556 0.59375 4.90723L7.40625 10.0322C7.80208 10.2822 8.19792 10.2822 8.59375 10.0322L15.4062 4.90723C15.7812 4.61556 15.9792 4.21973 16 3.71973C15.9792 3.30306 15.8333 2.94889 15.5625 2.65723C15.2708 2.38639 14.9167 2.24056 14.5 2.21973H1.5ZM0 5.71973V12.2197C0.0208333 12.7822 0.21875 13.251 0.59375 13.626C0.96875 14.001 1.4375 14.1989 2 14.2197H14C14.5625 14.1989 15.0312 14.001 15.4062 13.626C15.7812 13.251 15.9792 12.7822 16 12.2197V5.71973L9.1875 10.8135C8.83333 11.0843 8.4375 11.2197 8 11.2197C7.5625 11.2197 7.16667 11.0843 6.8125 10.8135L0 5.71973Z" fill="#9A9A9A"/>
</svg>
