<svg width="15" height="13" viewBox="0 0 15 13" fill="none" xmlns="http://www.w3.org/2000/svg">
<path d="M7.18066 0.617188C7.54004 0.460938 7.90723 0.460938 8.28223 0.617188L13.3916 2.98438C13.5947 3.09375 13.7041 3.26562 13.7197 3.5C13.7041 3.73438 13.5947 3.90625 13.3916 4.01562L8.25879 6.38281C7.89941 6.53906 7.53223 6.53906 7.15723 6.38281L2.04785 4.01562C1.84473 3.90625 1.73535 3.73438 1.71973 3.5C1.73535 3.26562 1.84473 3.09375 2.04785 2.98438L7.18066 0.617188ZM12.1494 5.42188L13.3916 5.98438C13.5947 6.09375 13.7041 6.26562 13.7197 6.5C13.7041 6.73438 13.5947 6.90625 13.3916 7.01562L8.25879 9.38281C7.89941 9.53906 7.53223 9.53906 7.15723 9.38281L2.04785 7.01562C1.84473 6.90625 1.73535 6.73438 1.71973 6.5C1.73535 6.26562 1.84473 6.09375 2.04785 5.98438L3.29004 5.42188L6.85254 7.0625C7.43066 7.3125 8.00879 7.3125 8.58691 7.0625L12.1494 5.42188ZM8.58691 10.0625L12.1494 8.42188L13.3916 8.98438C13.5947 9.09375 13.7041 9.26562 13.7197 9.5C13.7041 9.73438 13.5947 9.90625 13.3916 10.0156L8.25879 12.3828C7.89941 12.5391 7.53223 12.5391 7.15723 12.3828L2.04785 10.0156C1.84473 9.90625 1.73535 9.73438 1.71973 9.5C1.73535 9.26562 1.84473 9.09375 2.04785 8.98438L3.29004 8.42188L6.85254 10.0625C7.43066 10.3125 8.00879 10.3125 8.58691 10.0625Z" fill="#9A9A9A"/>
</svg>
