<svg width="13" height="14" viewBox="0 0 13 14" fill="none" xmlns="http://www.w3.org/2000/svg">
<path d="M5.68652 9.37891C5.86881 9.54297 6.07845 9.625 6.31543 9.625C6.55241 9.625 6.76204 9.54297 6.94434 9.37891L11.3193 5.00391C11.4834 4.82161 11.5654 4.61198 11.5654 4.375C11.5654 4.13802 11.4834 3.92839 11.3193 3.74609C11.137 3.58203 10.9274 3.5 10.6904 3.5C10.4535 3.5 10.2438 3.58203 10.0615 3.74609L6.31543 7.51953L2.56934 3.74609C2.38704 3.58203 2.17741 3.5 1.94043 3.5C1.70345 3.5 1.49382 3.58203 1.31152 3.74609C1.14746 3.92839 1.06543 4.13802 1.06543 4.375C1.06543 4.61198 1.14746 4.82161 1.31152 5.00391L5.68652 9.37891Z" fill="#9A9A9A"/>
</svg>
