<svg width="13" height="14" viewBox="0 0 13 14" fill="none" xmlns="http://www.w3.org/2000/svg">
<path d="M5.68604 9.37891C5.86833 9.54297 6.07796 9.625 6.31494 9.625C6.55192 9.625 6.76156 9.54297 6.94385 9.37891L11.3188 5.00391C11.4829 4.82161 11.5649 4.61198 11.5649 4.375C11.5649 4.13802 11.4829 3.92839 11.3188 3.74609C11.1366 3.58203 10.9269 3.5 10.6899 3.5C10.453 3.5 10.2433 3.58203 10.061 3.74609L6.31494 7.51953L2.56885 3.74609C2.38656 3.58203 2.17692 3.5 1.93994 3.5C1.70296 3.5 1.49333 3.58203 1.31104 3.74609C1.14697 3.92839 1.06494 4.13802 1.06494 4.375C1.06494 4.61198 1.14697 4.82161 1.31104 5.00391L5.68604 9.37891Z" fill="#9A9A9A"/>
</svg>
