<svg width="17" height="16" viewBox="0 0 17 16" fill="none" xmlns="http://www.w3.org/2000/svg">
<g clip-path="url(#clip0_27_4123)">
<path d="M2.29004 8C2.33171 6.16667 2.96712 4.63542 4.19629 3.40625C5.42546 2.17708 6.95671 1.54167 8.79004 1.5C10.6234 1.54167 12.1546 2.17708 13.3838 3.40625C14.613 4.63542 15.2484 6.16667 15.29 8V12.5C15.29 12.8542 15.165 13.1458 14.915 13.375C14.6859 13.625 14.3942 13.75 14.04 13.75H10.6025C10.3109 13.2708 9.87337 13.0208 9.29004 13H8.29004C7.87337 13.0208 7.51921 13.1667 7.22754 13.4375C6.95671 13.7292 6.81087 14.0833 6.79004 14.5C6.81087 14.9167 6.95671 15.2708 7.22754 15.5625C7.51921 15.8333 7.87337 15.9792 8.29004 16H9.29004C9.87337 15.9792 10.3109 15.7292 10.6025 15.25H14.04C14.8109 15.2292 15.4567 14.9583 15.9775 14.4375C16.4984 13.9167 16.7692 13.2708 16.79 12.5V8C16.7692 6.5 16.4046 5.15625 15.6963 3.96875C14.988 2.76042 14.0296 1.80208 12.8213 1.09375C11.6338 0.385417 10.29 0.020833 8.79004 0C7.29004 0.020833 5.94629 0.385417 4.75879 1.09375C3.55046 1.80208 2.59212 2.76042 1.88379 3.96875C1.17546 5.15625 0.810872 6.5 0.790039 8V9.25C0.831706 9.70833 1.08171 9.95833 1.54004 10C1.99837 9.95833 2.24837 9.70833 2.29004 9.25V8ZM5.79004 7V10.5C5.49837 10.5 5.25879 10.4062 5.07129 10.2188C4.88379 10.0312 4.79004 9.79167 4.79004 9.5V8C4.79004 7.70833 4.88379 7.46875 5.07129 7.28125C5.25879 7.09375 5.49837 7 5.79004 7ZM3.29004 8V9.5C3.31087 10.2083 3.55046 10.8021 4.00879 11.2812C4.48796 11.7396 5.08171 11.9792 5.79004 12H6.29004C6.58171 12 6.82129 11.9062 7.00879 11.7188C7.19629 11.5312 7.29004 11.2917 7.29004 11V6.5C7.29004 6.20833 7.19629 5.96875 7.00879 5.78125C6.82129 5.59375 6.58171 5.5 6.29004 5.5H5.79004C5.08171 5.52083 4.48796 5.76042 4.00879 6.21875C3.55046 6.69792 3.31087 7.29167 3.29004 8ZM11.79 7C12.0817 7 12.3213 7.09375 12.5088 7.28125C12.6963 7.46875 12.79 7.70833 12.79 8V9.5C12.79 9.79167 12.6963 10.0312 12.5088 10.2188C12.3213 10.4062 12.0817 10.5 11.79 10.5V7ZM14.29 8C14.2692 7.29167 14.0296 6.69792 13.5713 6.21875C13.0921 5.76042 12.4984 5.52083 11.79 5.5H11.29C10.9984 5.5 10.7588 5.59375 10.5713 5.78125C10.3838 5.96875 10.29 6.20833 10.29 6.5V11C10.29 11.2917 10.3838 11.5312 10.5713 11.7188C10.7588 11.9062 10.9984 12 11.29 12H11.79C12.4984 11.9792 13.0921 11.7396 13.5713 11.2812C14.0296 10.8021 14.2692 10.2083 14.29 9.5V8Z" fill="#9A9A9A"/>
</g>
<defs>
<clipPath id="clip0_27_4123">
<rect width="16" height="16" fill="white" transform="matrix(1 0 0 -1 0.790039 16)"/>
</clipPath>
</defs>
</svg>
