<svg width="18" height="18" viewBox="0 0 18 18" fill="none" xmlns="http://www.w3.org/2000/svg">
<g clip-path="url(#clip0_9_1038)">
<path d="M6.98145 2.79102L8.11035 4.75H8.07715H5.68652C5.31022 4.75 5.00033 4.61719 4.75684 4.35156C4.49121 4.10807 4.3584 3.79818 4.3584 3.42188C4.3584 3.04557 4.49121 2.73568 4.75684 2.49219C5.00033 2.22656 5.31022 2.09375 5.68652 2.09375H5.75293C6.28418 2.11589 6.69369 2.34831 6.98145 2.79102ZM2.76465 3.42188C2.76465 3.90885 2.87533 4.35156 3.09668 4.75H1.70215C1.39225 4.75 1.1377 4.84961 0.938477 5.04883C0.739258 5.24805 0.639648 5.5026 0.639648 5.8125V7.9375C0.639648 8.2474 0.739258 8.50195 0.938477 8.70117C1.1377 8.90039 1.39225 9 1.70215 9H16.5771C16.887 9 17.1416 8.90039 17.3408 8.70117C17.54 8.50195 17.6396 8.2474 17.6396 7.9375V5.8125C17.6396 5.5026 17.54 5.24805 17.3408 5.04883C17.1416 4.84961 16.887 4.75 16.5771 4.75H15.1826C15.404 4.35156 15.5146 3.90885 15.5146 3.42188C15.4925 2.60286 15.2048 1.91667 14.6514 1.36328C14.098 0.809896 13.4118 0.522135 12.5928 0.5H12.5264C11.3975 0.544271 10.5342 1.03125 9.93652 1.96094L9.13965 3.35547L8.34277 1.99414C7.74512 1.04232 6.88184 0.544271 5.75293 0.5H5.68652C4.86751 0.522135 4.18132 0.809896 3.62793 1.36328C3.07454 1.91667 2.78678 2.60286 2.76465 3.42188ZM13.9209 3.42188C13.9209 3.79818 13.7881 4.10807 13.5225 4.35156C13.279 4.61719 12.9691 4.75 12.5928 4.75H10.2021H10.1689L11.3311 2.79102C11.5967 2.34831 11.9951 2.11589 12.5264 2.09375H12.5928C12.9691 2.09375 13.279 2.22656 13.5225 2.49219C13.7881 2.73568 13.9209 3.04557 13.9209 3.42188ZM1.70215 10.0625V15.9062C1.72428 16.349 1.87923 16.7253 2.16699 17.0352C2.47689 17.3229 2.85319 17.4779 3.2959 17.5H8.07715V10.0625H1.70215ZM10.2021 17.5H14.9834C15.4261 17.4779 15.8024 17.3229 16.1123 17.0352C16.4001 16.7253 16.555 16.349 16.5771 15.9062V10.0625H10.2021V17.5Z" fill="#D9D9D9"/>
</g>
<defs>
<clipPath id="clip0_9_1038">
<rect width="17" height="17" fill="white" transform="matrix(1 0 0 -1 0.639648 17.5)"/>
</clipPath>
</defs>
</svg>
