<svg width="14" height="18" viewBox="0 0 14 18" fill="none" xmlns="http://www.w3.org/2000/svg">
<g clip-path="url(#clip0_9_1803)">
<path d="M6.99993 3.0001C7.23431 3.01572 7.40618 3.1251 7.51556 3.32822L9.10931 6.63291L12.6952 7.14854C12.9296 7.19541 13.0859 7.32822 13.164 7.54697C13.2265 7.76572 13.1796 7.95322 13.0234 8.10947L10.4218 10.6876L11.0312 14.3438C11.0624 14.5626 10.9843 14.7501 10.7968 14.9063C10.6093 15.0313 10.414 15.0392 10.2109 14.9298L6.99993 13.2188L3.78899 14.9298C3.58587 15.0392 3.39056 15.0235 3.20306 14.8829C3.01556 14.7423 2.93743 14.5626 2.96868 14.3438L3.57806 10.6876L0.976493 8.10947C0.820243 7.95322 0.773368 7.76572 0.835868 7.54697C0.913993 7.32822 1.07024 7.19541 1.30462 7.14854L4.89056 6.63291L6.48431 3.32822C6.59368 3.1251 6.76556 3.01572 6.99993 3.0001ZM6.99993 4.85166L5.75774 7.38291C5.67962 7.55479 5.53899 7.66416 5.33587 7.71104L2.57024 8.10947L4.58587 10.1017C4.71087 10.2423 4.76556 10.4063 4.74993 10.5938L4.25774 13.4063L6.74212 12.0938C6.91399 12.0001 7.08587 12.0001 7.25774 12.0938L9.71868 13.4063L9.24993 10.5938C9.21868 10.4063 9.27337 10.2423 9.41399 10.1017L11.4296 8.10947L8.66399 7.71104C8.46087 7.66416 8.32024 7.55479 8.24212 7.38291L6.99993 4.85166Z" fill="#9A9A9A"/>
</g>
<defs>
<clipPath id="clip0_9_1803">
<rect width="13.5" height="18" fill="white" transform="matrix(1 0 0 -1 0.25 18)"/>
</clipPath>
</defs>
</svg>
