<svg width="27" height="21" viewBox="0 0 27 21" fill="none" xmlns="http://www.w3.org/2000/svg">
<g clip-path="url(#clip0_27_4297)">
<g clip-path="url(#clip1_27_4297)">
<g clip-path="url(#clip2_27_4297)">
<path d="M0 0.222656H26.66V20.2177H0" fill="#BD3D44"/>
<path d="M0 2.52637H26.66H0ZM0 5.59643H26.66H0ZM0 8.679H26.66H0ZM0 11.7616H26.66H0ZM0 14.8441H26.66H0ZM0 17.9267H26.66H0Z" fill="black"/>
<path d="M0 2.52637H26.66M0 5.59643H26.66M0 8.679H26.66M0 11.7616H26.66M0 14.8441H26.66M0 17.9267H26.66" stroke="#FAFAFA" stroke-opacity="0.8" stroke-width="1.54128"/>
<path d="M0 0.222656H15.1962V10.9908H0" fill="#192F5D"/>
</g>
</g>
</g>
<defs>
<clipPath id="clip0_27_4297">
<rect width="26.66" height="20" fill="white" transform="translate(0 0.219727)"/>
</clipPath>
<clipPath id="clip1_27_4297">
<rect width="26.66" height="20" fill="white" transform="translate(0 0.219727)"/>
</clipPath>
<clipPath id="clip2_27_4297">
<rect width="26.66" height="19.995" fill="white" transform="translate(0 0.222656)"/>
</clipPath>
</defs>
</svg>
