<svg width="19" height="18" viewBox="0 0 19 18" fill="none" xmlns="http://www.w3.org/2000/svg">
<g clip-path="url(#clip0_27_4133)">
<g clip-path="url(#clip1_27_4133)">
<g clip-path="url(#clip2_27_4133)">
<path d="M-2.20996 0H21.79V18H-2.20996" fill="#BD3D44"/>
<path d="M-2.20996 2.07373H21.79H-2.20996ZM-2.20996 4.83748H21.79H-2.20996ZM-2.20996 7.61248H21.79H-2.20996ZM-2.20996 10.3875H21.79H-2.20996ZM-2.20996 13.1625H21.79H-2.20996ZM-2.20996 15.9375H21.79H-2.20996Z" fill="black"/>
<path d="M-2.20996 2.07373H21.79M-2.20996 4.83748H21.79M-2.20996 7.61248H21.79M-2.20996 10.3875H21.79M-2.20996 13.1625H21.79M-2.20996 15.9375H21.79" stroke="#FAFAFA" stroke-opacity="0.8" stroke-width="1.3875"/>
<path d="M-2.20996 0H11.47V9.69375H-2.20996" fill="#192F5D"/>
</g>
</g>
</g>
<defs>
<clipPath id="clip0_27_4133">
<rect x="0.790039" width="18" height="18" rx="9" fill="white"/>
</clipPath>
<clipPath id="clip1_27_4133">
<rect width="18" height="18" fill="white" transform="translate(0.790039)"/>
</clipPath>
<clipPath id="clip2_27_4133">
<rect width="24" height="18" fill="white" transform="translate(-2.20996)"/>
</clipPath>
</defs>
</svg>
